<svg xmlns="http://www.w3.org/2000/svg" viewBox="0 0 560.57 41.52"><defs><style>.cls-1{fill:#373635;}</style></defs><g id="Capa_2" data-name="Capa 2"><g id="Capa_1-2" data-name="Capa 1"><path class="cls-1" d="M16.67.11h-.93L0,38.13H2.16l6-15.84,13.54.09L27.32,38h5.52a6.35,6.35,0,0,1-2.34-2.74Zm4.17,21H9.22V20.5L15.07,6.25h.59L20.84,20.5Z"/><path class="cls-1" d="M50,38.13h3.72V.11L50.52,0,50,.5Z"/><path class="cls-1" d="M94.1,9.09c-.8-10-12.28-9-12.28-9L75.37.11H73l-.56.54V38.13h3.34V20.5h6.82s4.93,8.19,6.52,10.66a27.17,27.17,0,0,0,9.45,9.19c4.63,2.47,7.23.17,7.23.17-5.09,1-9.77-4.6-11.93-7.48S86.28,21.23,86.28,20.5,94.89,19.1,94.1,9.09ZM79.17,19.26H75.76v-18H78c3.46,0,12.31-.56,12.35,9.2S79.17,19.26,79.17,19.26Z"/><path class="cls-1" d="M125.09,1.31c5.56.13,7.06,3,7.06,3V.11H113.73l-.47.46V38.13h18.87l3.52-6.55c-2,3.21-4.9,4.4-8.32,4.81a45.14,45.14,0,0,1-8,0c-1.88-.17-2.7-.58-2.84-2.93V19.62H130v-1.7H116.52V1.32Z"/><path class="cls-1" d="M466.91,31.18c-1.43-.17-1.87-.67-2.83-3.52l-4.56-13.37c-.5-1.46-1-3-1.46-4.46a.48.48,0,0,0-.49-.3,3.89,3.89,0,0,1-1.73,1.27,5,5,0,0,1-.57,2.37l-3.39,9c-1.4,3.72-2.33,5.88-2.93,7.41a2.22,2.22,0,0,1-2,1.63l-1.1.1a.65.65,0,0,0,.06.84c.9,0,2.1-.1,3.2-.1,1.56,0,2.59,0,3.45.1a.55.55,0,0,0,.13-.77l-.06-.07-1.1-.1c-.8-.07-1-.27-1-.67a13.13,13.13,0,0,1,.73-2.75l1.17-3.49c.23-.71.43-.8,1.26-.8h5c1,0,1.13.09,1.37.83l1.46,4.52a6.76,6.76,0,0,1,.43,1.76c0,.33-.46.54-1.16.6l-1,.1a.58.58,0,0,0,0,.82l0,0c1,0,2.23-.1,3.83-.1s2.66,0,4,.1a.66.66,0,0,0,0-.84Zm-8.58-9h-4.09c-.93,0-1,0-.7-.79l2.09-5.79a19.63,19.63,0,0,1,.8-2h.07a21.7,21.7,0,0,1,.76,2.09l1.8,5.41c.31.91.24,1-.73,1Z"/><path class="cls-1" d="M496.77,9.14c-.5.86-.79.93-2.59.93H480.71c-1.53,0-2.63,0-2.83-1a.86.86,0,0,0-.63,0A35.33,35.33,0,0,1,476,14a.64.64,0,0,0,.86.22,6.08,6.08,0,0,1,1.5-2.3c.84-.76,2.67-.83,4.09-.83h1.83c1,0,1,0,1,1.07V27c0,3.49-.17,4-2.07,4.16l-1.19.1a.59.59,0,0,0,0,.83h0c2.13-.07,3.29-.1,4.62-.1s2.46,0,4.35.1a.65.65,0,0,0,.08-.84l-1.07-.1c-1.93-.17-2-.67-2-4.16V12.23c0-1.1,0-1.13,1-1.13h2.36a6.63,6.63,0,0,1,3.85.83c.5.36.74,1.6.84,2.42a.61.61,0,0,0,.86-.06,20,20,0,0,1,.5-5C497.3,9.1,496.93,9.07,496.77,9.14Z"/><path class="cls-1" d="M533,31.18c-1.93-.23-2-.67-2-4.16v-12c0-3.48.07-4,2-4.18l.69-.07a.65.65,0,0,0-.07-.84c-1.5.08-2.63.1-3.92.1s-2.49,0-4-.1c-.21.11-.28.7-.08.84l.64.07c2,.2,2,.7,2,4.18v3.83c0,1-.06,1.07-1.66,1.07h-9.51c-1.6,0-1.67,0-1.67-1.07V15.05c0-3.48.07-4,2-4.18l.63-.07A.66.66,0,0,0,518,10c-1.43.08-2.56.1-3.86.1S511.6,10,510,10c-.2.11-.27.7-.06.84l.86.07c1.73.13,2,.7,2,4.18V27c0,3.49-.06,3.83-1.93,4.16l-.56.1a.67.67,0,0,0,.06.84c1.3,0,2.43-.1,3.86-.1s2.43,0,4.22.1a.67.67,0,0,0,.07-.84l-1-.1c-1.86-.2-2-.67-2-4.16V22.34c0-1,.07-1.07,1.67-1.07h9.51c1.6,0,1.66.07,1.66,1.07V27c0,3.49,0,3.83-2,4.16l-.64.1a.65.65,0,0,0,.08.84c1.46-.07,2.65-.1,4-.1s2.42,0,4,.1c.19-.1.26-.7.06-.84Z"/><path class="cls-1" d="M556.43,20l-2.66-1.66c-1.23-.77-2.84-2.17-2.84-4.09,0-1.53.7-3.7,4-3.7s4.08,2.16,4.52,3.76c.17.2.7.1.83-.1a14.67,14.67,0,0,0-.6-4.06,4.22,4.22,0,0,1-1.16-.2,13.46,13.46,0,0,0-3.09-.43c-4.32,0-6.78,2.56-6.78,5.73,0,2.73,1.92,4.62,3.58,5.72L555.37,23c2.43,1.56,2.73,3.18,2.73,4.65,0,2-1.37,3.83-4.16,3.83-3.86,0-5.22-3.26-5.73-5-.12-.2-.62-.13-.8.1a15.78,15.78,0,0,0,.9,4.66,10.39,10.39,0,0,0,5.18,1.22c4.33,0,7.08-2.49,7.08-6.15C560.58,23.23,558.52,21.31,556.43,20Z"/><path class="cls-1" d="M429.8,20.12c-.36-.07-.63-.17-.63-.5,2-.94,3.38-2.17,3.38-4.57A4.33,4.33,0,0,0,430,10.9a12.74,12.74,0,0,0-5.59-.94c-3.09,0-5.34.11-7.14.28a.52.52,0,0,0-.12.73.26.26,0,0,0,.09.09l1.06.1c1.5.13,1.63.76,1.63,3.23V27c0,3.49-.08,3.86-1.83,4.16l-.6.1a.65.65,0,0,0,.07.83c1.23,0,2.36-.1,3.82-.1s3,.1,4,.1c6,0,8.85-2.59,8.85-6.45A5.5,5.5,0,0,0,429.8,20.12Zm-7.12-8c0-.6.13-.77.47-.87a4.14,4.14,0,0,1,1.52-.2c2.53,0,5,1.23,5,4.48s-1.83,4.14-5.22,4.27c-1.7.07-1.73,0-1.73-.94Zm3.33,19a3.25,3.25,0,0,1-2.63-.93c-.63-.73-.7-2.43-.7-3.63V21.61c0-.67.13-.87,1.93-.87,5.29,0,6.62,3.06,6.62,5.69,0,3.33-2.26,4.65-5.22,4.65Z"/><path class="cls-1" d="M235,10.06c-1.26,0-2.39,0-3.92-.1a.57.57,0,0,0-.11.79l0,.05.56.07c1.33.16,1.86.36,2.06.67.64,1,.67,5.31.67,6.87v7.12a3.44,3.44,0,0,1-.14,1.39h-.06c-1.57-1.6-3.2-3.46-5.49-6l-3.23-3.62c-1.1-1.22-5-5.61-5.69-7.31a11,11,0,0,1-1.52.1c-.6,0-2.36,0-3.76-.1a.58.58,0,0,0-.08.82h0l.57.07a3.57,3.57,0,0,1,2.06.8,3,3,0,0,1,.73,2.4v9.6c0,1.6,0,5.66-.43,6.85-.17.37-.7.57-1.46.67l-.9.1a.62.62,0,0,0,.06.84c1.16-.07,2.06-.1,3.45-.1,1.23,0,2.4,0,3.89.1a.62.62,0,0,0,.07-.84l-1-.1c-.83-.07-1.5-.27-1.7-.63-.56-1-.6-5.33-.6-6.89V16.42a8.23,8.23,0,0,1,.17-2.16h.07c.7.73,3,3.45,3.85,4.49l7.72,8.78c2.9,3.29,3.85,4.45,4.25,5a.59.59,0,0,0,.63-.37c-.1-.87-.1-4.83-.1-5.82V18.41c0-1.52-.06-5.66.5-6.84.14-.28.8-.54,1.86-.7l.47-.08a.58.58,0,0,0-.06-.82h0C237.25,10,236.39,10.06,235,10.06Z"/><path class="cls-1" d="M202.31,31.18c-1.44-.17-1.86-.67-2.83-3.52l-4.56-13.37c-.5-1.46-1-3-1.46-4.46a.47.47,0,0,0-.5-.3,3.79,3.79,0,0,1-1.73,1.27,4.87,4.87,0,0,1-.56,2.37l-3.4,9c-1.4,3.72-2.32,5.88-2.92,7.41a2.21,2.21,0,0,1-2,1.63l-1.1.1a.67.67,0,0,0,.07.84c.9,0,2.09-.1,3.19-.1,1.56,0,2.6,0,3.46.1a.55.55,0,0,0,.14-.76l-.07-.08-1.1-.1c-.8-.07-1-.27-1-.67a12.54,12.54,0,0,1,.73-2.75l1.16-3.49c.23-.71.43-.8,1.26-.8h5c1,0,1.13.09,1.37.83L197,28.82a7.21,7.21,0,0,1,.44,1.76c0,.33-.47.54-1.17.6l-1,.1a.58.58,0,0,0,0,.81l0,0c1,0,2.23-.1,3.82-.1s2.66,0,4,.1a.66.66,0,0,0,0-.84Zm-8.58-9h-4.09c-.93,0-1,0-.7-.79L191,15.56a19.63,19.63,0,0,1,.8-2h.06a19.37,19.37,0,0,1,.77,2.09l1.79,5.41C194.76,22,194.69,22.14,193.73,22.14Z"/><path class="cls-1" d="M293.22,10.87l.83-.08c.2-.13.13-.72-.07-.83-1.66.07-2.79.1-4.12.1s-2.52,0-4.19-.1c-.2.11-.26.7-.06.83l.83.08c2,.16,2,.73,2,4.25V27c0,3.53-.07,4-2,4.23l-.83.1a.65.65,0,0,0,.06.84c1.67-.07,2.8-.1,4.19-.1s2.46,0,4.12.1a.67.67,0,0,0,.07-.84l-.83-.1c-2-.23-2-.7-2-4.23V15.12C291.19,11.6,291.26,11,293.22,10.87Z"/><path class="cls-1" d="M394.24,9.14c-.5.86-.8.93-2.59.93H378.19c-1.54,0-2.63,0-2.84-1a.83.83,0,0,0-.62,0,37.19,37.19,0,0,1-1.27,5,.65.65,0,0,0,.87.22,5.85,5.85,0,0,1,1.5-2.3c.83-.76,2.65-.83,4.09-.83h1.82c1,0,1,0,1,1.07V27c0,3.49-.17,4-2.06,4.16l-1.19.1a.58.58,0,0,0,0,.83h0c2.13-.07,3.29-.1,4.61-.1s2.47,0,4.36.1a.67.67,0,0,0,.07-.84l-1.07-.1c-1.92-.17-2-.67-2-4.16V12.23c0-1.1,0-1.13,1-1.13h2.36a6.66,6.66,0,0,1,3.86.83c.5.36.74,1.6.84,2.42a.61.61,0,0,0,.86-.06,19.91,19.91,0,0,1,.5-5C394.78,9.1,394.41,9.07,394.24,9.14Z"/><path class="cls-1" d="M357.89,10.06c-1.26,0-2.39,0-3.92-.1a.57.57,0,0,0-.1.79l0,.05.56.07c1.33.16,1.87.36,2.07.67.63,1,.66,5.31.66,6.87v7.12a3.44,3.44,0,0,1-.13,1.39H357c-1.56-1.59-3.19-3.45-5.48-6l-3.24-3.62c-1.09-1.22-5-5.62-5.68-7.32a8.74,8.74,0,0,1-1.53.1c-.6,0-2.36,0-3.75-.1a.58.58,0,0,0-.08.82v0l.57.07a3.57,3.57,0,0,1,2.06.8,3.06,3.06,0,0,1,.73,2.39v9.61c0,1.6,0,5.65-.43,6.85-.17.37-.71.57-1.47.66l-.89.1a.62.62,0,0,0,.07.84c1.16-.06,2.06-.1,3.44-.1s2.4,0,3.9.1a.63.63,0,0,0,.06-.84l-1-.1c-.83-.06-1.5-.26-1.7-.63-.56-1-.6-5.32-.6-6.88V16.42a8.68,8.68,0,0,1,.17-2.16h.07c.7.73,3,3.45,3.86,4.49l7.72,8.78c2.88,3.29,3.85,4.45,4.25,5a.6.6,0,0,0,.63-.37c-.1-.87-.1-4.83-.1-5.82V18.41c0-1.52-.06-5.66.5-6.84.14-.28.81-.54,1.87-.7l.46-.08a.58.58,0,0,0-.05-.82h0C360.19,10,359.33,10.06,357.89,10.06Z"/><path class="cls-1" d="M324.48,27.26a8.4,8.4,0,0,1-2.36,3.22c-.73.37-1.7.5-4.26.5-2.93,0-3.63-.36-4-.76-.53-.57-.62-1.7-.62-3.46V22.07c0-.86.09-.9,1.09-.9h1.93a11.53,11.53,0,0,1,2.56.17,1.41,1.41,0,0,1,1,1.26l.3,1.3c.17.2.74.2.87,0,0-.73-.13-2-.13-3.2s.13-2.56.13-3.35c-.13-.23-.7-.23-.87,0l-.26,1.37c-.16.83-.4,1-.8,1.16a12.71,12.71,0,0,1-2.82.2h-1.93c-1,0-1.1,0-1.1-.93V12.43c0-1.26,0-1.34,1-1.34h2.4a16.5,16.5,0,0,1,3.22.2c1.74.45,2,1.6,2.53,3.17a.65.65,0,0,0,.83-.07,36.51,36.51,0,0,0-.53-4.42,42,42,0,0,1-4.49.11h-6.25c-1.36,0-2.5,0-3.92-.11-.2.11-.27.7-.07.84l.53.06c2,.23,2,.73,2,4.18V27c0,3.49-.16,4-2.06,4.16l-1.1.1a.65.65,0,0,0,.07.83c2-.07,3.1-.1,4.52-.1h3c2.95,0,5.91,0,8.91.1a31.14,31.14,0,0,0,1.5-4.62A.62.62,0,0,0,324.48,27.26Z"/><path class="cls-1" d="M271.91,26.76a7.11,7.11,0,0,1-7,4.76c-5.45,0-9.87-3.86-9.87-10.85s4.32-10.11,9.41-10.11c4.82,0,6.31,2.61,6.82,4.85a.71.71,0,0,0,.9-.05c-.27-2-.43-4.13-.47-4.89a2.65,2.65,0,0,1-.93-.13,25.49,25.49,0,0,0-5.89-.81,14.25,14.25,0,0,0-9,2.83,11,11,0,0,0-4.19,8.81,10.71,10.71,0,0,0,4.72,9.15,14.49,14.49,0,0,0,8.28,2.22,19.43,19.43,0,0,0,5.25-.76,7.37,7.37,0,0,1,1.16-.33,12.38,12.38,0,0,0,1.6-4.55A.68.68,0,0,0,271.91,26.76Z"/><path class="cls-1" d="M158.9,21.12V13.38L158.66,0l-.25,13.38V28.14l.25,13.38.24-13.38Z"/></g></g></svg>